<svg class="svg-icon" style="width: 1em;height: 1em;vertical-align: middle;fill: currentColor;overflow: hidden;" viewBox="0 0 1024 1024" version="1.1" xmlns="http://www.w3.org/2000/svg"><path d="M849.170732 0c97.404878 0 174.829268 77.42439 174.829268 174.829268v674.341464c0 97.404878-77.42439 174.829268-174.829268 174.829268H174.829268c-97.404878 0-174.829268-77.42439-174.829268-174.829268V174.829268c0-97.404878 77.42439-174.829268 174.829268-174.829268h674.341464zM307.2 689.326829h-54.946341c-17.482927 0-27.473171 9.990244-27.473171 27.473171v54.946341c0 17.482927 9.990244 27.473171 27.473171 27.473171h54.946341c17.482927 0 27.473171-9.990244 27.473171-27.473171v-54.946341c0-17.482927-9.990244-27.473171-27.473171-27.473171z m439.570732 0h-274.731708c-17.482927 0-27.473171 9.990244-27.47317 27.473171v54.946341c0 17.482927 9.990244 27.473171 27.47317 27.473171h274.731708c17.482927 0 27.473171-9.990244 27.47317-27.473171v-54.946341c0-17.482927-9.990244-27.473171-27.47317-27.473171z m-439.570732-219.785366h-54.946341c-17.482927 0-27.473171 9.990244-27.473171 27.473171v54.946342c0 17.482927 9.990244 27.473171 27.473171 27.47317h54.946341c17.482927 0 27.473171-9.990244 27.473171-27.47317v-54.946342c0-17.482927-9.990244-27.473171-27.473171-27.473171z m439.570732 0h-274.731708c-17.482927 0-27.473171 9.990244-27.47317 27.473171v54.946342c0 17.482927 9.990244 27.473171 27.47317 27.47317h274.731708c17.482927 0 27.473171-9.990244 27.47317-27.47317v-54.946342c0-17.482927-9.990244-27.473171-27.47317-27.473171zM307.2 249.756098h-54.946341c-17.482927 0-27.473171 9.990244-27.473171 27.47317v54.946342c0 17.482927 9.990244 27.473171 27.473171 27.47317h54.946341c17.482927 0 27.473171-9.990244 27.473171-27.47317v-54.946342c0-17.482927-9.990244-27.473171-27.473171-27.47317z m439.570732 0h-274.731708c-17.482927 0-27.473171 9.990244-27.47317 27.47317v54.946342c0 17.482927 9.990244 27.473171 27.47317 27.47317h274.731708c17.482927 0 27.473171-9.990244 27.47317-27.47317v-54.946342c0-17.482927-9.990244-27.473171-27.47317-27.47317z" fill="#747bff" /></svg>